<svg xmlns="http://www.w3.org/2000/svg" xmlns:xlink="http://www.w3.org/1999/xlink" width="200" height="200" viewBox="0 0 200 200">
  <defs>
    <style>
      .cls-1, .cls-2, .cls-3, .cls-4, .cls-5 {
        fill-rule: evenodd;
      }

      .cls-1 {
        fill: url(#linear-gradient);
      }

      .cls-2 {
        fill: url(#linear-gradient-2);
      }

      .cls-3 {
        fill: url(#linear-gradient-3);
      }

      .cls-4 {
        fill: #fff7e8;
      }

      .cls-5 {
        fill: #ff8608;
        opacity: 0.4;
      }
    </style>
    <linearGradient id="linear-gradient" x1="145" y1="133" x2="145" y2="189" gradientUnits="userSpaceOnUse">
      <stop offset="0" stop-color="#a0ccfb"/>
      <stop offset="1" stop-color="#daedfb"/>
    </linearGradient>
    <linearGradient id="linear-gradient-2" x1="83.5" y1="189" x2="83.5" y2="7" gradientUnits="userSpaceOnUse">
      <stop offset="0" stop-color="#ff930c"/>
      <stop offset="1" stop-color="#ffbc03"/>
    </linearGradient>
    <linearGradient id="linear-gradient-3" x1="61.264" y1="18.063" x2="103.579" y2="156.469" gradientUnits="userSpaceOnUse">
      <stop offset="0" stop-color="#ffe5ad"/>
      <stop offset="1" stop-color="#ffc05d"/>
    </linearGradient>
  </defs>
  <path id="椭圆_4" data-name="椭圆 4" class="cls-1" d="M174,189H116a8,8,0,0,1-8-8V150a8,8,0,0,1,8-8h1v-1a4,4,0,0,1,8,0v1h3.2l4.8-9h25l4.8,9H174a8,8,0,0,1,8,8v31A8,8,0,0,1,174,189Zm-3-32a5,5,0,1,1,5-5A5,5,0,0,1,171,157Zm-26,26c-10.493,0-18-7.835-18-17.5s7.507-17.5,18-17.5,17.107,8.539,17,17.5C161.894,174.358,155.493,183,145,183Zm-0.5-28A10.5,10.5,0,1,1,134,165.5,10.5,10.5,0,0,1,144.5,155Z"/>
  <path id="椭圆_1" data-name="椭圆 1" class="cls-2" d="M122,189H45a25,25,0,0,1-25-25V32A25,25,0,0,1,45,7h77a25,25,0,0,1,25,25V164A25,25,0,0,1,122,189ZM82.5,160A11.5,11.5,0,1,0,94,171.5,11.5,11.5,0,0,0,82.5,160Z"/>
  <path id="圆角矩形_1" data-name="圆角矩形 1" class="cls-3" d="M120.24,18.072c8.353,0,15.126,6.372,15.126,14.233V142.22c0,7.861-6.773,14.233-15.126,14.233H44.609c-8.354,0-15.126-6.372-15.126-14.233V32.305c0-7.861,6.772-14.233,15.126-14.233h9.073c1.508,0,2.724.072,3.3,1.917a7.869,7.869,0,0,0,7.3,5.674h37.311a7.642,7.642,0,0,0,7.3-5.682c0.38-1.544,2.047-1.909,3.286-1.909h8.072Z"/>
  <path id="圆角矩形_2_拷贝_2" data-name="圆角矩形 2 拷贝 2" class="cls-4" d="M108.433,68.327H90.283c0,0.022,0,.043,0,0.066v51.368c0,3.422-3.441,6.29-6.862,6.29s-6.767-2.868-6.767-6.29V68.393c0-.022,0-0.043,0-0.066h-19.2A5.966,5.966,0,0,1,51.5,62.361V61.778a5.966,5.966,0,0,1,5.966-5.966h50.969a5.966,5.966,0,0,1,5.966,5.966v0.583A5.966,5.966,0,0,1,108.433,68.327Z"/>
  <path id="椭圆_4_拷贝" data-name="椭圆 4 拷贝" class="cls-5" d="M108,181V150a8,8,0,0,1,8-8h1v-1a4,4,0,0,1,8,0v1h3.2l4.8-9h14v15.11a18.647,18.647,0,0,0-2-.11c-10.493,0-18,7.835-18,17.5a17.188,17.188,0,0,0,12.187,16.624A24.893,24.893,0,0,1,122,189h-6A8,8,0,0,1,108,181Zm26-15.5a10.464,10.464,0,0,1,13-10.188V164a24.88,24.88,0,0,1-3.051,11.972A10.491,10.491,0,0,1,134,165.5Z"/>
</svg>
